<svg version="1.1" xmlns="http://www.w3.org/2000/svg" viewBox="0 0 133.32697933355416 204.60424939350014" width="399.9809380006625" height="613.8127481805004"><!-- svg-source:excalidraw --><metadata></metadata><defs><style class="style-fonts">
      </style></defs><g transform="translate(51.14077659284976 12.138720206897418) rotate(0 16.564466812480532 72.88365397491407)" stroke="none"><path fill="#fcd5ce" d="M 2.17,-1.08 Q 2.17,-1.08 2.70,-0.10 3.24,0.88 4.13,2.33 5.01,3.78 6.35,5.71 7.68,7.63 8.96,9.41 10.23,11.19 11.23,12.64 12.23,14.10 13.11,15.35 14.00,16.61 15.18,18.11 16.37,19.61 17.85,21.31 19.32,23.02 20.51,24.35 21.71,25.68 23.16,27.51 24.61,29.35 26.20,31.35 27.80,33.35 28.94,34.79 30.08,36.24 31.31,37.99 32.54,39.75 33.69,41.27 34.84,42.79 35.63,43.83 36.43,44.87 37.16,45.73 37.90,46.59 38.58,47.49 39.26,48.39 40.16,49.24 41.06,50.08 41.88,50.97 42.70,51.86 43.41,52.91 44.12,53.95 45.04,55.28 45.95,56.60 46.59,57.68 47.22,58.75 47.90,59.59 48.57,60.43 49.58,62.04 50.58,63.66 51.24,64.77 51.90,65.88 52.51,66.98 53.11,68.08 54.00,69.96 54.88,71.84 55.39,72.98 55.90,74.12 56.63,75.94 57.35,77.77 57.99,79.13 58.62,80.49 59.40,82.05 60.17,83.61 60.99,85.22 61.81,86.83 62.49,87.97 63.17,89.12 64.01,90.63 64.85,92.14 65.63,93.90 66.41,95.66 66.98,96.73 67.55,97.80 68.26,99.27 68.96,100.73 69.59,102.48 70.21,104.22 70.70,105.25 71.19,106.29 71.66,107.52 72.12,108.75 72.45,110.06 72.78,111.37 73.35,113.01 73.92,114.65 74.12,115.87 74.32,117.10 74.61,118.80 74.90,120.50 75.00,122.04 75.09,123.58 74.60,126.03 74.12,128.48 73.29,130.67 72.46,132.86 71.77,134.03 71.09,135.20 69.68,137.21 68.28,139.23 67.06,140.28 65.84,141.33 64.96,142.06 64.08,142.79 62.59,143.59 61.10,144.40 59.57,145.08 58.04,145.76 56.66,146.22 55.28,146.69 53.65,147.04 52.02,147.40 50.03,147.59 48.05,147.77 46.48,147.89 44.91,148.00 42.92,147.96 40.92,147.92 38.58,147.82 36.23,147.72 34.28,147.59 32.34,147.47 29.34,146.94 26.35,146.41 22.88,145.65 19.41,144.90 16.95,144.36 14.49,143.83 11.29,142.87 8.08,141.91 4.93,140.89 1.77,139.88 -0.37,139.14 -2.51,138.39 -4.99,137.25 -7.47,136.10 -9.74,134.79 -12.02,133.48 -13.64,132.45 -15.26,131.43 -17.06,129.92 -18.87,128.42 -20.73,126.78 -22.58,125.14 -23.93,123.99 -25.28,122.83 -26.59,121.52 -27.90,120.21 -29.24,118.87 -30.57,117.53 -31.54,116.58 -32.50,115.63 -33.48,114.37 -34.45,113.11 -35.31,111.74 -36.16,110.37 -37.44,108.22 -38.73,106.07 -39.27,104.49 -39.81,102.90 -40.17,101.75 -40.53,100.59 -40.81,99.22 -41.09,97.85 -41.23,96.49 -41.37,95.13 -41.51,93.35 -41.66,91.56 -41.32,90.31 -40.98,89.07 -40.51,87.96 -40.05,86.84 -39.19,85.93 -38.33,85.03 -37.18,84.31 -36.02,83.60 -34.83,83.26 -33.63,82.92 -32.09,82.77 -30.55,82.62 -29.10,82.58 -27.65,82.54 -25.74,82.57 -23.84,82.60 -22.00,82.74 -20.16,82.88 -18.67,82.93 -17.19,82.98 -15.25,83.11 -13.32,83.24 -11.09,83.40 -8.86,83.56 -7.32,83.55 -5.77,83.54 -3.91,83.60 -2.05,83.65 0.04,83.75 2.13,83.85 3.62,83.81 5.11,83.76 7.35,83.86 9.59,83.95 12.42,83.92 15.24,83.89 17.47,83.90 19.70,83.91 22.26,83.93 24.82,83.95 26.90,83.96 28.99,83.96 30.32,83.76 31.65,83.56 32.76,83.42 33.88,83.27 35.33,83.09 36.79,82.91 38.36,82.78 39.93,82.64 41.36,82.55 42.79,82.45 44.03,82.37 45.27,82.29 46.35,82.23 47.43,82.17 48.51,82.09 49.58,82.02 50.80,81.95 52.03,81.87 53.12,82.02 54.20,82.17 55.35,82.16 56.49,82.15 57.01,82.24 57.54,82.32 58.01,82.57 58.48,82.82 58.84,83.21 59.20,83.59 59.43,84.08 59.65,84.56 59.71,85.08 59.76,85.61 59.65,86.13 59.54,86.65 59.26,87.10 58.99,87.56 58.58,87.90 58.18,88.24 57.68,88.44 57.19,88.64 56.66,88.67 56.13,88.69 55.62,88.55 55.11,88.41 54.67,88.11 54.23,87.81 53.91,87.39 53.59,86.97 53.42,86.46 53.25,85.96 53.25,85.43 53.25,84.90 53.42,84.40 53.59,83.89 53.91,83.47 54.23,83.05 54.67,82.75 55.11,82.45 55.63,82.31 56.14,82.17 56.67,82.20 57.20,82.23 57.69,82.43 58.18,82.62 58.59,82.97 58.99,83.31 59.26,83.77 59.54,84.22 59.65,84.74 59.76,85.26 59.71,85.79 59.65,86.31 59.43,86.79 59.20,87.28 58.84,87.66 58.47,88.05 58.00,88.29 57.53,88.54 57.01,88.63 56.49,88.71 56.49,88.71 56.49,88.71 54.26,88.50 52.03,88.29 50.80,88.22 49.58,88.15 48.51,88.07 47.43,88.00 46.35,87.94 45.27,87.87 44.03,87.80 42.79,87.72 41.36,87.62 39.94,87.53 38.39,87.41 36.85,87.29 35.44,87.16 34.03,87.03 32.96,86.97 31.90,86.91 30.45,86.92 29.00,86.92 26.92,86.95 24.84,86.97 22.30,87.03 19.76,87.08 17.56,87.18 15.36,87.27 12.48,87.44 9.59,87.61 7.35,87.71 5.11,87.80 3.62,87.76 2.13,87.71 0.04,87.81 -2.05,87.91 -3.91,87.97 -5.77,88.02 -7.32,88.01 -8.86,88.01 -11.09,88.16 -13.32,88.32 -15.25,88.45 -17.18,88.59 -18.67,88.63 -20.15,88.68 -22.00,88.82 -23.84,88.97 -25.10,89.01 -26.37,89.05 -27.74,89.04 -29.10,89.03 -30.65,89.03 -32.19,89.04 -33.56,89.47 -34.93,89.89 -35.66,90.75 -36.39,91.60 -36.42,93.18 -36.45,94.75 -36.40,95.88 -36.35,97.01 -36.17,98.19 -35.99,99.38 -35.76,100.45 -35.53,101.52 -35.13,102.82 -34.74,104.11 -33.71,106.23 -32.69,108.34 -32.00,109.61 -31.32,110.87 -30.55,112.05 -29.79,113.22 -29.02,114.23 -28.25,115.24 -26.92,116.62 -25.58,117.99 -24.40,119.29 -23.21,120.59 -21.98,121.82 -20.75,123.04 -18.91,124.63 -17.07,126.23 -15.35,127.62 -13.63,129.00 -12.15,130.06 -10.67,131.12 -8.49,132.36 -6.31,133.59 -3.96,134.66 -1.62,135.73 0.50,136.43 2.63,137.13 5.77,138.10 8.90,139.06 12.00,139.92 15.10,140.79 17.58,141.24 20.05,141.69 23.46,142.31 26.88,142.93 29.70,143.28 32.53,143.63 34.36,143.69 36.20,143.75 38.51,143.61 40.81,143.47 42.69,143.33 44.56,143.20 45.97,143.09 47.38,142.99 49.09,142.66 50.80,142.34 52.20,141.96 53.61,141.58 54.66,141.25 55.71,140.92 57.05,140.21 58.40,139.50 60.24,138.27 62.08,137.04 62.94,136.27 63.79,135.50 64.91,133.88 66.03,132.26 66.98,130.46 67.94,128.65 68.48,126.82 69.02,124.99 69.15,123.78 69.27,122.57 69.26,121.01 69.25,119.45 69.07,117.82 68.89,116.19 68.44,114.32 67.99,112.45 67.79,111.36 67.59,110.28 67.26,109.18 66.93,108.08 66.50,106.93 66.07,105.77 65.47,104.26 64.88,102.75 64.13,101.28 63.39,99.81 62.89,98.69 62.40,97.56 61.62,96.04 60.85,94.51 59.91,93.03 58.97,91.54 58.31,90.35 57.64,89.16 56.70,87.63 55.76,86.09 54.76,84.51 53.76,82.92 53.06,81.59 52.35,80.27 51.32,78.60 50.30,76.93 49.33,74.92 48.36,72.91 47.25,70.94 46.14,68.97 45.40,67.52 44.66,66.06 43.82,64.61 42.97,63.15 41.96,61.42 40.95,59.68 40.13,58.14 39.31,56.59 38.77,55.43 38.24,54.27 37.48,53.18 36.72,52.10 35.70,50.52 34.67,48.94 34.02,47.90 33.37,46.87 32.80,45.80 32.22,44.74 31.09,43.21 29.95,41.67 28.65,40.00 27.34,38.34 26.29,36.92 25.23,35.51 23.54,33.61 21.86,31.70 20.30,30.03 18.75,28.35 17.59,27.08 16.43,25.80 14.73,24.21 13.04,22.62 11.48,21.09 9.92,19.55 9.05,18.38 8.19,17.21 6.97,15.78 5.75,14.35 4.51,12.53 3.28,10.70 2.48,9.58 1.69,8.45 0.73,6.78 -0.22,5.10 -0.73,4.11 -1.23,3.12 -1.70,2.10 -2.17,1.08 -2.27,0.81 -2.37,0.53 -2.40,0.24 -2.43,-0.04 -2.38,-0.33 -2.34,-0.62 -2.23,-0.90 -2.12,-1.17 -1.95,-1.40 -1.78,-1.64 -1.56,-1.83 -1.34,-2.02 -1.07,-2.15 -0.81,-2.28 -0.53,-2.35 -0.24,-2.41 0.04,-2.41 0.34,-2.40 0.62,-2.33 0.90,-2.25 1.16,-2.11 1.42,-1.97 1.63,-1.77 1.85,-1.57 2.01,-1.33 2.17,-1.08 2.17,-1.08 L 2.17,-1.08 Z"></path></g><g transform="translate(11.82018232504879 99.8090191683685) rotate(0 20.081519814045123 -44.90450958418425)" stroke="none"><path fill="#fcd5ce" d="M -1.62,-0.67 Q -1.62,-0.67 -1.12,-2.05 -0.62,-3.44 0.24,-5.36 1.10,-7.27 1.74,-8.90 2.38,-10.54 3.35,-12.95 4.32,-15.36 5.41,-18.00 6.49,-20.64 7.37,-22.58 8.25,-24.53 9.09,-26.88 9.93,-29.24 10.70,-31.47 11.48,-33.69 11.87,-35.21 12.27,-36.74 12.75,-38.36 13.22,-39.99 13.64,-41.61 14.06,-43.23 14.34,-44.45 14.62,-45.67 14.95,-46.93 15.29,-48.19 15.55,-49.39 15.81,-50.60 16.42,-52.40 17.04,-54.20 17.66,-55.98 18.29,-57.77 18.95,-59.15 19.62,-60.52 20.31,-61.94 21.00,-63.35 21.40,-64.35 21.80,-65.35 22.30,-66.61 22.79,-67.87 23.45,-69.34 24.11,-70.81 24.99,-73.00 25.86,-75.19 26.41,-76.48 26.95,-77.78 27.69,-79.61 28.43,-81.43 29.09,-82.92 29.75,-84.41 30.35,-85.57 30.95,-86.74 31.51,-87.91 32.07,-89.08 32.60,-90.06 33.14,-91.04 34.41,-91.99 35.68,-92.95 37.63,-92.33 39.57,-91.72 41.23,-89.69 42.89,-87.66 43.14,-87.17 43.40,-86.68 43.48,-86.13 43.56,-85.59 43.47,-85.04 43.37,-84.50 43.11,-84.02 42.85,-83.53 42.45,-83.16 42.04,-82.78 41.54,-82.56 41.04,-82.33 40.49,-82.28 39.94,-82.22 39.40,-82.35 38.87,-82.47 38.40,-82.76 37.93,-83.05 37.58,-83.47 37.22,-83.89 37.02,-84.41 36.83,-84.92 36.80,-85.47 36.78,-86.02 36.93,-86.55 37.08,-87.08 37.39,-87.53 37.71,-87.99 38.15,-88.32 38.59,-88.64 39.12,-88.82 39.64,-88.99 40.19,-88.98 40.74,-88.98 41.26,-88.79 41.78,-88.61 42.22,-88.28 42.65,-87.94 42.96,-87.48 43.26,-87.02 43.40,-86.49 43.55,-85.96 43.51,-85.41 43.48,-84.86 43.27,-84.35 43.06,-83.84 42.70,-83.42 42.34,-83.00 41.86,-82.72 41.39,-82.44 40.85,-82.33 40.31,-82.22 39.76,-82.28 39.21,-82.35 38.72,-82.58 38.22,-82.82 37.82,-83.20 37.43,-83.59 37.43,-83.59 37.43,-83.59 36.09,-85.42 34.76,-87.25 36.23,-86.90 37.71,-86.56 36.93,-85.23 36.15,-83.90 35.38,-82.68 34.62,-81.46 34.01,-80.36 33.40,-79.26 32.55,-77.52 31.70,-75.78 31.18,-74.54 30.66,-73.31 29.69,-71.07 28.72,-68.84 28.14,-67.43 27.57,-66.02 27.05,-64.65 26.52,-63.29 26.04,-62.27 25.56,-61.24 24.92,-59.78 24.28,-58.31 23.33,-56.27 22.38,-54.22 21.93,-53.20 21.47,-52.18 20.75,-50.83 20.03,-49.48 19.64,-48.20 19.24,-46.92 18.79,-45.73 18.34,-44.54 17.91,-43.41 17.47,-42.27 16.96,-40.60 16.45,-38.93 15.88,-37.35 15.30,-35.77 14.73,-34.27 14.16,-32.78 13.42,-30.53 12.68,-28.29 11.85,-25.80 11.02,-23.32 10.21,-21.41 9.41,-19.50 8.43,-16.84 7.44,-14.19 6.57,-11.69 5.70,-9.19 5.02,-7.56 4.33,-5.94 3.60,-3.97 2.86,-2.00 2.24,-0.66 1.62,0.67 1.52,0.85 1.42,1.04 1.27,1.19 1.13,1.35 0.95,1.46 0.77,1.58 0.57,1.65 0.37,1.72 0.16,1.74 -0.04,1.76 -0.25,1.72 -0.46,1.69 -0.66,1.61 -0.86,1.53 -1.03,1.41 -1.20,1.28 -1.34,1.12 -1.47,0.95 -1.57,0.76 -1.66,0.57 -1.70,0.37 -1.75,0.16 -1.74,-0.04 -1.74,-0.26 -1.68,-0.46 -1.62,-0.67 -1.62,-0.67 L -1.62,-0.67 Z"></path></g><g transform="translate(70.03337777555157 120.8153742615982) rotate(0 -22.17130520395176 36.20158427832749)" stroke="none"><path fill="#fcd5ce" d="M -0.69,2.54 Q -0.69,2.54 -1.79,2.26 -2.89,1.98 -4.87,1.73 -6.84,1.49 -8.71,1.48 -10.58,1.47 -12.36,1.50 -14.15,1.53 -15.58,1.72 -17.02,1.92 -17.90,2.59 -18.78,3.26 -19.49,4.13 -20.21,4.99 -20.44,6.55 -20.67,8.11 -20.47,9.48 -20.26,10.85 -19.76,11.87 -19.26,12.88 -18.23,14.72 -17.20,16.56 -16.43,18.16 -15.66,19.77 -14.71,21.50 -13.77,23.23 -12.69,25.02 -11.62,26.82 -10.70,28.28 -9.78,29.74 -9.30,30.71 -8.82,31.67 -8.22,32.84 -7.61,34.01 -7.24,35.35 -6.87,36.69 -6.62,37.92 -6.38,39.15 -6.47,40.94 -6.56,42.74 -7.00,44.71 -7.44,46.69 -7.97,47.79 -8.50,48.90 -9.28,50.44 -10.06,51.97 -10.90,52.96 -11.75,53.96 -12.95,55.31 -14.15,56.66 -15.57,57.81 -17.00,58.95 -17.88,59.74 -18.77,60.54 -20.29,61.66 -21.81,62.77 -23.68,63.90 -25.54,65.02 -26.88,65.91 -28.22,66.80 -29.75,67.69 -31.28,68.58 -32.61,69.36 -33.94,70.14 -35.75,71.29 -37.56,72.44 -38.64,73.31 -39.72,74.19 -41.56,75.25 -43.39,76.32 -43.82,76.41 -44.25,76.49 -44.69,76.44 -45.12,76.38 -45.51,76.19 -45.91,75.99 -46.22,75.68 -46.53,75.38 -46.73,74.98 -46.92,74.59 -46.99,74.16 -47.05,73.72 -46.97,73.29 -46.89,72.86 -46.67,72.48 -46.46,72.10 -46.13,71.80 -45.81,71.51 -45.41,71.33 -45.00,71.16 -44.57,71.12 -44.13,71.08 -43.70,71.19 -43.28,71.29 -42.91,71.52 -42.54,71.76 -42.26,72.10 -41.99,72.44 -41.83,72.85 -41.68,73.26 -41.66,73.70 -41.65,74.14 -41.78,74.56 -41.90,74.98 -42.16,75.33 -42.41,75.69 -42.77,75.95 -43.12,76.21 -43.54,76.34 -43.96,76.47 -44.40,76.46 -44.84,76.45 -45.25,76.30 -45.66,76.15 -46.00,75.88 -46.35,75.60 -46.58,75.23 -46.82,74.87 -46.93,74.44 -47.04,74.02 -47.00,73.58 -46.97,73.14 -46.80,72.74 -46.63,72.34 -46.34,72.01 -46.05,71.68 -45.66,71.46 -45.28,71.24 -45.28,71.24 -45.28,71.24 -43.95,70.45 -42.62,69.66 -41.29,68.85 -39.96,68.04 -38.13,67.08 -36.30,66.13 -35.00,65.37 -33.69,64.60 -32.32,63.73 -30.94,62.85 -29.65,61.94 -28.37,61.02 -26.87,59.77 -25.37,58.51 -24.12,57.32 -22.88,56.13 -21.96,55.23 -21.03,54.34 -20.06,53.39 -19.09,52.44 -17.91,51.07 -16.73,49.70 -15.92,48.65 -15.10,47.60 -14.44,46.12 -13.78,44.63 -13.51,43.32 -13.24,42.00 -13.17,40.60 -13.09,39.20 -13.25,38.03 -13.40,36.86 -13.97,35.65 -14.53,34.45 -15.33,32.98 -16.13,31.52 -17.12,29.92 -18.11,28.33 -19.19,26.53 -20.26,24.74 -21.34,22.77 -22.41,20.80 -23.11,19.50 -23.80,18.20 -24.55,16.81 -25.29,15.43 -25.92,13.89 -26.55,12.35 -26.80,10.65 -27.04,8.95 -26.89,7.51 -26.74,6.07 -26.47,4.76 -26.20,3.45 -25.12,1.72 -24.04,-0.01 -23.19,-0.81 -22.34,-1.62 -20.31,-2.76 -18.28,-3.89 -17.03,-4.11 -15.77,-4.34 -14.20,-4.28 -12.62,-4.23 -11.55,-4.21 -10.49,-4.19 -8.43,-4.08 -6.38,-3.97 -5.06,-3.84 -3.75,-3.71 -2.62,-3.44 -1.48,-3.18 -0.39,-2.86 0.69,-2.54 0.98,-2.42 1.28,-2.30 1.53,-2.11 1.79,-1.92 2.00,-1.68 2.20,-1.44 2.34,-1.15 2.48,-0.87 2.55,-0.56 2.62,-0.25 2.61,0.06 2.60,0.38 2.52,0.68 2.44,0.99 2.28,1.27 2.13,1.55 1.91,1.78 1.69,2.01 1.43,2.18 1.16,2.36 0.86,2.46 0.56,2.57 0.25,2.60 -0.06,2.63 -0.37,2.58 -0.69,2.54 -0.69,2.54 L -0.69,2.54 Z"></path></g><g transform="translate(25.78550030761994 57.06012894226653) rotate(0 -5.524925107666945 -8.28738766150046)" stroke="none"><path fill="#fcd5ce" d="M -1.00,2.22 Q -1.00,2.22 -3.20,1.06 -5.41,-0.08 -6.91,-0.89 -8.40,-1.70 -9.91,-2.79 -11.41,-3.89 -12.53,-4.99 -13.64,-6.09 -14.97,-7.55 -16.30,-9.00 -17.00,-10.24 -17.71,-11.48 -18.08,-12.61 -18.44,-13.74 -18.23,-15.57 -18.02,-17.39 -16.53,-18.38 -15.03,-19.37 -13.45,-19.53 -11.87,-19.69 -10.64,-19.73 -9.41,-19.76 -8.32,-19.64 -7.22,-19.51 -6.02,-19.30 -4.81,-19.09 -3.50,-18.58 -2.19,-18.06 -1.10,-18.04 -0.01,-18.02 1.09,-17.67 2.20,-17.32 3.95,-16.67 5.70,-16.02 6.21,-15.78 6.73,-15.53 7.14,-15.14 7.56,-14.74 7.82,-14.24 8.08,-13.73 8.17,-13.16 8.26,-12.60 8.17,-12.04 8.07,-11.47 7.80,-10.97 7.53,-10.47 7.11,-10.08 6.69,-9.69 6.17,-9.45 5.65,-9.21 5.08,-9.16 4.52,-9.10 3.96,-9.22 3.40,-9.35 2.91,-9.65 2.43,-9.95 2.06,-10.39 1.69,-10.82 1.48,-11.36 1.28,-11.89 1.25,-12.46 1.22,-13.03 1.38,-13.58 1.54,-14.13 1.86,-14.60 2.18,-15.07 2.64,-15.41 3.10,-15.75 3.64,-15.93 4.18,-16.11 4.75,-16.11 5.33,-16.10 5.87,-15.92 6.41,-15.73 6.86,-15.38 7.31,-15.03 7.63,-14.56 7.95,-14.08 8.10,-13.53 8.24,-12.98 8.21,-12.41 8.17,-11.84 7.96,-11.31 7.74,-10.78 7.37,-10.35 7.00,-9.92 6.51,-9.62 6.02,-9.33 5.46,-9.21 4.90,-9.10 4.33,-9.16 3.76,-9.23 3.76,-9.23 3.76,-9.23 1.59,-10.21 -0.57,-11.18 -1.71,-11.40 -2.85,-11.62 -4.03,-11.96 -5.22,-12.30 -6.62,-12.74 -8.03,-13.17 -9.47,-13.28 -10.91,-13.40 -12.01,-13.72 -13.11,-14.05 -12.67,-12.89 -12.23,-11.72 -11.33,-10.41 -10.42,-9.11 -9.67,-8.21 -8.92,-7.32 -7.63,-6.40 -6.34,-5.48 -4.99,-4.73 -3.65,-3.99 -1.32,-3.11 1.00,-2.22 1.25,-2.07 1.50,-1.91 1.71,-1.71 1.91,-1.50 2.07,-1.25 2.22,-1.00 2.31,-0.71 2.39,-0.43 2.41,-0.14 2.43,0.14 2.38,0.43 2.32,0.72 2.20,0.99 2.08,1.26 1.90,1.49 1.72,1.72 1.49,1.90 1.26,2.08 0.99,2.20 0.72,2.32 0.43,2.38 0.14,2.43 -0.14,2.41 -0.43,2.39 -0.71,2.31 -1.00,2.22 -1.00,2.22 L -1.00,2.22 Z"></path></g><g transform="translate(73.53663873817027 38.90680358850359) rotate(0 7.498112646119466 3.9463750769049994)" stroke="none"><path fill="#fcd5ce" d="M -1.28,-2.25 Q -1.28,-2.25 -0.51,-2.74 0.26,-3.22 1.51,-3.71 2.75,-4.20 4.13,-4.76 5.51,-5.31 6.84,-5.41 8.17,-5.51 9.37,-5.56 10.56,-5.61 11.91,-5.43 13.26,-5.25 14.47,-4.62 15.68,-3.99 16.77,-3.13 17.87,-2.27 18.14,-1.24 18.41,-0.21 18.46,1.07 18.51,2.36 18.19,3.87 17.87,5.38 16.75,7.06 15.64,8.74 14.99,9.61 14.34,10.47 14.32,10.47 14.30,10.47 14.17,11.05 14.04,11.63 13.73,12.13 13.42,12.64 12.97,13.02 12.52,13.40 11.97,13.61 11.42,13.83 10.83,13.86 10.24,13.89 9.67,13.73 9.10,13.57 8.61,13.23 8.12,12.90 7.77,12.42 7.41,11.95 7.23,11.39 7.04,10.83 7.04,10.24 7.05,9.65 7.24,9.09 7.43,8.53 7.79,8.06 8.15,7.59 8.64,7.26 9.13,6.93 9.70,6.77 10.27,6.62 10.86,6.65 11.45,6.69 12.00,6.91 12.55,7.13 13.00,7.52 13.45,7.90 13.75,8.41 14.05,8.92 14.18,9.50 14.30,10.08 14.23,10.66 14.17,11.25 13.92,11.79 13.67,12.32 13.26,12.75 12.85,13.18 12.32,13.45 11.80,13.73 11.22,13.82 10.63,13.91 10.05,13.81 9.46,13.71 8.94,13.43 8.42,13.15 8.02,12.72 7.61,12.29 7.37,11.75 7.12,11.21 7.06,10.63 7.00,10.04 7.00,10.04 7.00,10.04 8.33,7.77 9.67,5.51 10.27,4.63 10.88,3.75 11.45,2.48 12.02,1.22 10.97,1.03 9.92,0.85 8.73,0.79 7.54,0.74 6.37,0.77 5.21,0.79 4.06,1.10 2.91,1.41 2.10,1.83 1.28,2.25 0.99,2.37 0.71,2.49 0.40,2.54 0.09,2.59 -0.21,2.56 -0.53,2.54 -0.82,2.44 -1.12,2.34 -1.38,2.17 -1.65,2.00 -1.86,1.77 -2.08,1.55 -2.23,1.27 -2.39,1.00 -2.47,0.70 -2.56,0.40 -2.57,0.09 -2.58,-0.22 -2.52,-0.52 -2.45,-0.83 -2.32,-1.11 -2.18,-1.39 -1.98,-1.63 -1.79,-1.88 -1.53,-2.06 -1.28,-2.25 -1.28,-2.25 L -1.28,-2.25 Z"></path></g></svg>